<?xml version="1.0" standalone="no"?>
<!DOCTYPE svg PUBLIC "-//W3C//DTD SVG 20010904//EN"
 "http://www.w3.org/TR/2001/REC-SVG-20010904/DTD/svg10.dtd">
<svg version="1.0" xmlns="http://www.w3.org/2000/svg"
 width="96.000000pt" height="96.000000pt" viewBox="0 0 96.000000 96.000000"
 preserveAspectRatio="xMidYMid meet">

<g transform="translate(0.000000,96.000000) scale(0.100000,-0.100000)"
fill="#000000" stroke="none">
<path d="M448 693 c-144 -144 -188 -194 -188 -213 0 -19 44 -69 188 -213 169
-169 192 -188 218 -185 24 2 30 8 32 32 3 26 -15 48 -165 198 l-168 168 168
168 c150 150 168 172 165 198 -2 24 -8 29 -33 32 -27 2 -49 -16 -217 -185z"/>
</g>
</svg>
